<?xml version="1.0" encoding="utf-8"?>
<!-- Generator: Adobe Illustrator 24.1.2, SVG Export Plug-In . SVG Version: 6.00 Build 0)  -->
<svg version="1.1" id="Layer_1" xmlns="http://www.w3.org/2000/svg" xmlns:xlink="http://www.w3.org/1999/xlink" x="0px" y="0px"
	 viewBox="0 0 600 900" style="enable-background:new 0 0 600 900;" xml:space="preserve">
<style type="text/css">
	.st0{fill:#0049C6;}
	.st1{fill:#CC0000;}
	.st2{fill:#650725;}
	.st3{opacity:0.75;fill:#6A2500;}
	.st4{fill:#08256B;}
	.st5{fill:#126E15;}
	.st6{fill:#FFD600;}
	.st7{fill:#F3E200;}
	.st8{fill:#277800;}
	.st9{fill:#070908;}
</style>
<path class="st0" d="M409.87,437.03v-42.31h9.78V236.59c0-60.34-49.37-109.71-109.71-109.71h-20.79
	c-60.34,0-109.71,49.37-109.71,109.71v156.77h9.33v43.67h-9.33v289.84c0,60.34,49.37,109.71,109.71,109.71h20.79
	c60.34,0,109.71-49.37,109.71-109.71V437.03H409.87z"/>
<path class="st1" d="M309.97,827.71h-20.86c-55.07,0-100.12-45.05-100.12-100.12V235.87c0-55.07,45.05-100.12,100.12-100.12h20.86
	c55.07,0,100.12,45.05,100.12,100.12v491.72C410.09,782.66,365.04,827.71,309.97,827.71z"/>
<rect x="206.51" y="239.14" class="st2" width="193.8" height="170.6"/>
<path class="st3" d="M369.87,772.78H228.35v-25.93h146.03v21.42C374.38,770.76,372.36,772.78,369.87,772.78z"/>
<rect x="206.51" y="416.56" class="st4" width="192.44" height="102.36"/>
<rect x="206.51" y="523.02" class="st5" width="192.44" height="196.53"/>
<rect x="247.45" y="43.97" class="st6" width="6.82" height="372.59"/>
<rect x="263.83" y="43.97" class="st6" width="6.82" height="372.59"/>
<rect x="280.21" y="43.97" class="st6" width="6.82" height="372.59"/>
<rect x="311.6" y="43.97" class="st6" width="6.82" height="372.59"/>
<rect x="327.98" y="43.97" class="st6" width="6.82" height="372.59"/>
<rect x="344.36" y="43.97" class="st6" width="6.82" height="372.59"/>
<rect x="296.13" y="43.97" class="st6" width="6.82" height="372.59"/>
<polygon class="st0" points="188.77,394.73 141,394.73 141,383.81 188.77,376.98 "/>
<polygon class="st0" points="188.77,437.03 141,437.03 141,447.95 188.77,454.78 "/>
<rect x="141" y="394.73" class="st7" width="36.85" height="42.31"/>
<polygon class="st0" points="411.23,394.73 459,394.73 459,383.81 411.23,376.98 "/>
<polygon class="st0" points="411.23,437.03 459,437.03 459,447.95 411.23,454.78 "/>
<rect x="409.87" y="394.73" transform="matrix(-1 -3.370827e-11 3.370827e-11 -1 868.8669 831.7596)" class="st7" width="49.13" height="42.31"/>
<polygon class="st8" points="375.75,416.56 375.75,359.24 424.88,359.24 424.88,368.79 392.12,368.79 392.12,416.56 "/>
<rect x="203.78" y="718.18" class="st6" width="192.44" height="30.03"/>
<rect x="207.88" y="723.64" class="st9" width="10.92" height="20.47"/>
<rect x="221.52" y="723.64" class="st5" width="10.92" height="20.47"/>
<rect x="236.54" y="723.64" class="st9" width="10.92" height="20.47"/>
<rect x="250.18" y="723.64" class="st5" width="10.92" height="20.47"/>
<rect x="265.2" y="723.64" class="st9" width="10.92" height="20.47"/>
<rect x="278.85" y="723.64" class="st5" width="10.92" height="20.47"/>
<rect x="293.86" y="723.64" class="st9" width="10.92" height="20.47"/>
<rect x="308.87" y="723.64" class="st5" width="10.92" height="20.47"/>
<rect x="323.88" y="723.64" class="st9" width="10.92" height="20.47"/>
<rect x="338.9" y="723.64" class="st5" width="10.92" height="20.47"/>
<rect x="353.91" y="723.64" class="st9" width="10.92" height="20.47"/>
<rect x="368.92" y="723.64" class="st5" width="10.92" height="20.47"/>
<rect x="382.57" y="723.64" class="st9" width="10.92" height="20.47"/>
<rect x="216.06" y="745.48" class="st6" width="5.46" height="110.55"/>
<rect x="237.9" y="745.48" class="st6" width="5.46" height="110.55"/>
<rect x="258.37" y="745.48" class="st6" width="5.46" height="110.55"/>
<rect x="278.85" y="745.48" class="st6" width="5.46" height="110.55"/>
<rect x="299.32" y="745.48" class="st6" width="5.46" height="110.55"/>
<rect x="321.15" y="745.48" class="st6" width="5.46" height="110.55"/>
<rect x="341.63" y="745.48" class="st6" width="5.46" height="110.55"/>
<rect x="362.1" y="745.48" class="st6" width="5.46" height="110.55"/>
<rect x="382.57" y="745.48" class="st6" width="5.46" height="110.55"/>
</svg>
