<?xml version="1.0" encoding="utf-8"?>
<!-- Generator: Adobe Illustrator 24.1.2, SVG Export Plug-In . SVG Version: 6.00 Build 0)  -->
<svg version="1.1" id="Layer_1" xmlns="http://www.w3.org/2000/svg" xmlns:xlink="http://www.w3.org/1999/xlink" x="0px" y="0px"
	 viewBox="0 0 600 900" style="enable-background:new 0 0 600 900;" xml:space="preserve">
<style type="text/css">
	.st0{fill:#0049C6;}
	.st1{fill:#CC0000;}
	.st2{fill:#650725;}
	.st3{opacity:0.75;fill:#6A2500;}
	.st4{fill:#08256B;}
	.st5{fill:#126E15;}
	.st6{fill:#FFD600;}
	.st7{fill:#F3E200;}
	.st8{fill:#277800;}
	.st9{fill:#070908;}
</style>
<g id="Blueshape">
	<path class="st0" d="M406.34,437.45V396.5h9.47v-143c0-63.94-52.31-116.25-116.25-116.25h0c-63.94,0-116.25,52.31-116.25,116.25
		v141.68h9.03v42.27h-9.03v270.48c0,63.94,52.31,116.25,116.25,116.25h0c63.94,0,116.25-52.31,116.25-116.25V437.45H406.34z"/>
</g>
<g id="Redshape">
	<path class="st1" d="M299.56,815.59L299.56,815.59c-58.85,0-107-48.15-107-107V252.84c0-58.85,48.15-107,107-107h0
		c58.85,0,107,48.15,107,107v455.75C406.56,767.44,358.41,815.59,299.56,815.59z"/>
</g>
<g id="Darkredsquare">
	<rect x="209.51" y="245.9" class="st2" width="187.58" height="165.13"/>
</g>
<g id="Shadow">
	<path class="st3" d="M367.48,762.42H230.65v-25.1h141.35v20.59C371.99,760.4,369.98,762.42,367.48,762.42z"/>
</g>
<g id="Darkblueshape">
	<rect x="209.51" y="417.64" class="st4" width="186.26" height="99.08"/>
</g>
<g id="Darkgreenshape">
	<rect x="209.51" y="520.67" class="st5" width="186.26" height="190.23"/>
</g>
<g id="YellowLine1">
	<rect x="249.14" y="57" class="st6" width="6.61" height="360.64"/>
</g>
<g id="Yellowline1_1_">
	<rect x="264.99" y="57" class="st6" width="6.61" height="360.64"/>
</g>
<g id="Yellowline1_2_">
	<rect x="280.85" y="57" class="st6" width="6.61" height="360.64"/>
</g>
<g id="Yellowline5">
	<rect x="311.23" y="57" class="st6" width="6.61" height="360.64"/>
</g>
<g id="YellowLine6">
	<rect x="327.08" y="57" class="st6" width="6.61" height="360.64"/>
</g>
<g id="YellowLine7">
	<rect x="342.93" y="57" class="st6" width="6.61" height="360.64"/>
</g>
<g id="Yellowline4">
	<rect x="296.26" y="57" class="st6" width="6.61" height="360.64"/>
</g>
<g id="BlueTopL">
	<polygon class="st0" points="192.34,396.5 146.1,396.5 146.1,385.93 192.34,379.33 	"/>
</g>
<g id="BluebottomL">
	<polygon class="st0" points="192.34,437.45 146.1,437.45 146.1,448.02 192.34,454.62 	"/>
</g>
<g id="Yellowshape">
	<rect x="146.1" y="396.5" class="st7" width="35.67" height="40.95"/>
</g>
<g id="BluetopR">
	<polygon class="st0" points="407.66,396.5 453.9,396.5 453.9,385.93 407.66,379.33 	"/>
</g>
<g id="BlueBottomR">
	<polygon class="st0" points="407.66,437.45 453.9,437.45 453.9,448.02 407.66,454.62 	"/>
</g>
<g id="YellowsquareR">
	
		<rect x="406.34" y="396.5" transform="matrix(-1 -3.369761e-11 3.369761e-11 -1 860.2386 833.9496)" class="st7" width="47.56" height="40.95"/>
</g>
<g id="Layer_12">
	<polygon class="st8" points="373.32,417.64 373.32,362.15 420.87,362.15 420.87,371.4 389.17,371.4 389.17,417.64 	"/>
</g>
<g id="YellowSquare">
	<rect x="206.87" y="709.58" class="st6" width="186.26" height="29.06"/>
</g>
<g id="Blacksquare1">
	<rect x="210.83" y="714.86" class="st9" width="10.57" height="19.82"/>
</g>
<g id="Greensquare1">
	<rect x="224.04" y="714.86" class="st5" width="10.57" height="19.82"/>
</g>
<g id="Blacksquare2">
	<rect x="238.57" y="714.86" class="st9" width="10.57" height="19.82"/>
</g>
<g id="Greensquare2">
	<rect x="251.78" y="714.86" class="st5" width="10.57" height="19.82"/>
</g>
<g id="Blacksquare3">
	<rect x="266.31" y="714.86" class="st9" width="10.57" height="19.82"/>
</g>
<g id="Greensquare3">
	<rect x="279.52" y="714.86" class="st5" width="10.57" height="19.82"/>
</g>
<g id="Blacksquare4">
	<rect x="294.06" y="714.86" class="st9" width="10.57" height="19.82"/>
</g>
<g id="Greensquare4">
	<rect x="308.59" y="714.86" class="st5" width="10.57" height="19.82"/>
</g>
<g id="Blacksquare5">
	<rect x="323.12" y="714.86" class="st9" width="10.57" height="19.82"/>
</g>
<g id="Greensquare5">
	<rect x="337.65" y="714.86" class="st5" width="10.57" height="19.82"/>
</g>
<g id="Blacksquare6">
	<rect x="352.18" y="714.86" class="st9" width="10.57" height="19.82"/>
</g>
<g id="Greensquare6">
	<rect x="366.71" y="714.86" class="st5" width="10.57" height="19.82"/>
</g>
<g id="Blacksquare7">
	<rect x="379.92" y="714.86" class="st9" width="10.57" height="19.82"/>
</g>
<g id="Yellowstroke1">
	<rect x="218.76" y="736" class="st6" width="5.28" height="107"/>
</g>
<g id="Yellowstroke2">
	<rect x="239.89" y="736" class="st6" width="5.28" height="107"/>
</g>
<g id="Yellowstroke3">
	<rect x="259.71" y="736" class="st6" width="5.28" height="107"/>
</g>
<g id="Yellowstroke4">
	<rect x="279.52" y="736" class="st6" width="5.28" height="107"/>
</g>
<g id="Yellowstroke5">
	<rect x="299.34" y="736" class="st6" width="5.28" height="107"/>
</g>
<g id="Yellowstroke6">
	<rect x="320.48" y="736" class="st6" width="5.28" height="107"/>
</g>
<g id="Yellowstroke7">
	<rect x="340.29" y="736" class="st6" width="5.28" height="107"/>
</g>
<g id="Yellowstroke8">
	<rect x="360.11" y="736" class="st6" width="5.28" height="107"/>
</g>
<g id="Yellowstroke9">
	<rect x="379.92" y="736" class="st6" width="5.28" height="107"/>
</g>
</svg>
