<?xml version="1.0" encoding="utf-8"?>
<!-- Generator: Adobe Illustrator 24.1.2, SVG Export Plug-In . SVG Version: 6.00 Build 0)  -->
<svg version="1.1" xmlns="http://www.w3.org/2000/svg" xmlns:xlink="http://www.w3.org/1999/xlink" x="0px" y="0px"
	 viewBox="0 0 1920 1080" style="enable-background:new 0 0 1920 1080;" xml:space="preserve">
<style type="text/css">
	.st0{fill:#020403;}
	.st1{fill:#0049C6;}
	.st2{fill:#CC0000;}
	.st3{fill:#650725;}
	.st4{opacity:0.75;fill:#6A2500;}
	.st5{fill:#08256B;}
	.st6{fill:#126E15;}
	.st7{fill:#FFD600;}
	.st8{fill:#F3E200;}
	.st9{fill:#277800;}
	.st10{fill:#070908;}
</style>
<g id="BG_1_">
	<rect id="BG" class="st0" width="1920" height="1080"/>
</g>
<g id="Blueshape">
	<path class="st1" d="M1093.67,524.23v-51.48h11.9V293c0-80.37-65.76-146.12-146.12-146.12h0c-80.37,0-146.12,65.76-146.12,146.12
		v178.09h11.35v53.14h-11.35v339.99c0,80.37,65.76,146.12,146.12,146.12h0c80.37,0,146.12-65.76,146.12-146.12V524.23H1093.67z"/>
</g>
<g id="Redshape">
	<path class="st2" d="M959.45,999.54L959.45,999.54c-73.98,0-134.5-60.53-134.5-134.5V292.17c0-73.98,60.53-134.5,134.5-134.5h0
		c73.98,0,134.5,60.53,134.5,134.5v572.87C1093.95,939.02,1033.42,999.54,959.45,999.54z"/>
</g>
<g id="Darkredsquare">
	<rect x="846.26" y="283.45" class="st3" width="235.79" height="207.56"/>
</g>
<g id="Shadow">
	<path class="st4" d="M1045.99,932.71H872.82v-31.55h177.67v27.04C1050.5,930.69,1048.48,932.71,1045.99,932.71z"/>
</g>
<g id="Darkblueshape">
	<rect x="846.26" y="499.32" class="st5" width="234.13" height="124.54"/>
</g>
<g id="Darkgreenshape">
	<rect x="846.26" y="628.84" class="st6" width="234.13" height="239.11"/>
</g>
<g id="YellowLine1">
	<rect x="896.07" y="46" class="st7" width="8.3" height="453.32"/>
</g>
<g id="Yellowline1_1_">
	<rect x="916" y="46" class="st7" width="8.3" height="453.32"/>
</g>
<g id="Yellowline1_2_">
	<rect x="935.92" y="46" class="st7" width="8.3" height="453.32"/>
</g>
<g id="Yellowline5">
	<rect x="974.11" y="46" class="st7" width="8.3" height="453.32"/>
</g>
<g id="YellowLine6">
	<rect x="994.04" y="46" class="st7" width="8.3" height="453.32"/>
</g>
<g id="YellowLine7">
	<rect x="1013.97" y="46" class="st7" width="8.3" height="453.32"/>
</g>
<g id="Yellowline4">
	<rect x="955.3" y="46" class="st7" width="8.3" height="453.32"/>
</g>
<g id="BlueTopL">
	<polygon class="st1" points="824.67,472.75 766.55,472.75 766.55,459.47 824.67,451.16 	"/>
</g>
<g id="BluebottomL">
	<polygon class="st1" points="824.67,524.23 766.55,524.23 766.55,537.51 824.67,545.81 	"/>
</g>
<g id="Yellowshape">
	<rect x="766.55" y="472.75" class="st8" width="44.83" height="51.48"/>
</g>
<g id="BluetopR">
	<polygon class="st1" points="1095.33,472.75 1153.45,472.75 1153.45,459.47 1095.33,451.16 	"/>
</g>
<g id="BlueBottomR">
	<polygon class="st1" points="1095.33,524.23 1153.45,524.23 1153.45,537.51 1095.33,545.81 	"/>
</g>
<g id="YellowsquareR">
	
		<rect x="1093.67" y="472.75" transform="matrix(-1 -3.370028e-11 3.370028e-11 -1 2247.1194 996.9748)" class="st8" width="59.78" height="51.48"/>
</g>
<g id="Layer_12">
	<polygon class="st9" points="1052.16,499.32 1052.16,429.58 1111.94,429.58 1111.94,441.2 1072.08,441.2 1072.08,499.32 	"/>
</g>
<g id="YellowSquare">
	<rect x="842.93" y="866.29" class="st7" width="234.13" height="36.53"/>
</g>
<g id="Blacksquare1">
	<rect x="847.92" y="872.93" class="st10" width="13.28" height="24.91"/>
</g>
<g id="Greensquare1">
	<rect x="864.52" y="872.93" class="st6" width="13.28" height="24.91"/>
</g>
<g id="Blacksquare2">
	<rect x="882.79" y="872.93" class="st10" width="13.28" height="24.91"/>
</g>
<g id="Greensquare2">
	<rect x="899.39" y="872.93" class="st6" width="13.28" height="24.91"/>
</g>
<g id="Blacksquare3">
	<rect x="917.66" y="872.93" class="st10" width="13.28" height="24.91"/>
</g>
<g id="Greensquare3">
	<rect x="934.26" y="872.93" class="st6" width="13.28" height="24.91"/>
</g>
<g id="Blacksquare4">
	<rect x="952.53" y="872.93" class="st10" width="13.28" height="24.91"/>
</g>
<g id="Greensquare4">
	<rect x="970.79" y="872.93" class="st6" width="13.28" height="24.91"/>
</g>
<g id="Blacksquare5">
	<rect x="989.06" y="872.93" class="st10" width="13.28" height="24.91"/>
</g>
<g id="Greensquare5">
	<rect x="1007.32" y="872.93" class="st6" width="13.28" height="24.91"/>
</g>
<g id="Blacksquare6">
	<rect x="1025.59" y="872.93" class="st10" width="13.28" height="24.91"/>
</g>
<g id="Greensquare6">
	<rect x="1043.86" y="872.93" class="st6" width="13.28" height="24.91"/>
</g>
<g id="Blacksquare7">
	<rect x="1060.46" y="872.93" class="st10" width="13.28" height="24.91"/>
</g>
<g id="Yellowstroke1">
	<rect x="857.88" y="899.5" class="st7" width="6.64" height="134.5"/>
</g>
<g id="Yellowstroke2">
	<rect x="884.45" y="899.5" class="st7" width="6.64" height="134.5"/>
</g>
<g id="Yellowstroke3">
	<rect x="909.35" y="899.5" class="st7" width="6.64" height="134.5"/>
</g>
<g id="Yellowstroke4">
	<rect x="934.26" y="899.5" class="st7" width="6.64" height="134.5"/>
</g>
<g id="Yellowstroke5">
	<rect x="959.17" y="899.5" class="st7" width="6.64" height="134.5"/>
</g>
<g id="Yellowstroke6">
	<rect x="985.74" y="899.5" class="st7" width="6.64" height="134.5"/>
</g>
<g id="Yellowstroke7">
	<rect x="1010.65" y="899.5" class="st7" width="6.64" height="134.5"/>
</g>
<g id="Yellowstroke8">
	<rect x="1035.55" y="899.5" class="st7" width="6.64" height="134.5"/>
</g>
<g id="Yellowstroke9">
	<rect x="1060.46" y="899.5" class="st7" width="6.64" height="134.5"/>
</g>
</svg>
