<?xml version="1.0" encoding="utf-8"?>
<!-- Generator: Adobe Illustrator 24.1.2, SVG Export Plug-In . SVG Version: 6.00 Build 0)  -->
<svg version="1.1" id="Layer_1" xmlns="http://www.w3.org/2000/svg" xmlns:xlink="http://www.w3.org/1999/xlink" x="0px" y="0px"
	 viewBox="0 0 1600 1548" style="enable-background:new 0 0 1600 1548;" xml:space="preserve">
<style type="text/css">
	.st0{fill:#0049C6;}
	.st1{fill:#CC0000;}
	.st2{fill:#650725;}
	.st3{opacity:0.75;fill:#6A2500;}
	.st4{fill:#08256B;}
	.st5{fill:#126E15;}
	.st6{fill:#FFD600;}
	.st7{fill:#F3E200;}
	.st8{fill:#277800;}
	.st9{fill:#070908;}
</style>
<g id="Blueshape">
	<path class="st0" d="M993.88,715.89v-58.2c0-4.54,3.68-8.23,8.23-8.23h0.8c4.54,0,8.23-3.68,8.23-8.23V375.74
		c0-109.41-89.52-198.93-198.93-198.93h-26.02c-109.41,0-198.93,89.52-198.93,198.93v263.08c0,4.54,3.68,8.23,8.23,8.23l0,0
		c4.54,0,8.23,3.68,8.23,8.23v60.61c0,4.54-3.68,8.23-8.23,8.23l0,0c-4.54,0-8.23,3.68-8.23,8.23v497.9
		c0,109.41,89.52,198.93,198.93,198.93h26.02c109.41,0,198.93-89.52,198.93-198.93v-497.9c0-4.54-3.68-8.23-8.23-8.23h-0.8
		C997.56,724.12,993.88,720.44,993.88,715.89z"/>
</g>
<g id="Redshape">
	<path class="st1" d="M799.2,1413.53L799.2,1413.53c-107.29,0-195.08-87.79-195.08-195.08v-830.9
		c0-107.29,87.79-195.08,195.08-195.08h0c107.29,0,195.08,87.79,195.08,195.08v830.9C994.28,1325.74,906.49,1413.53,799.2,1413.53z"
		/>
</g>
<g id="Darkredsquare">
	<rect x="635.02" y="374.9" class="st2" width="341.99" height="301.05"/>
</g>
<g id="Shadow">
	<path class="st3" d="M926.75,1316.59H673.56v-45.76h257.7v41.25C931.26,1314.57,929.24,1316.59,926.75,1316.59z"/>
</g>
<g id="Darkblueshape">
	<rect x="635.02" y="687.99" class="st4" width="339.58" height="180.63"/>
</g>
<g id="Darkgreenshape">
	<rect x="635.02" y="875.85" class="st5" width="339.58" height="346.81"/>
</g>
<g id="YellowLine1">
	<rect x="707.28" y="30.5" class="st6" width="12.04" height="657.49"/>
</g>
<g id="Yellowline1_1_">
	<rect x="736.18" y="30.5" class="st6" width="12.04" height="657.49"/>
</g>
<g id="Yellowline1_2_">
	<rect x="765.08" y="30.5" class="st6" width="12.04" height="657.49"/>
</g>
<g id="Yellowline5">
	<rect x="820.47" y="30.5" class="st6" width="12.04" height="657.49"/>
</g>
<g id="YellowLine6">
	<rect x="849.37" y="30.5" class="st6" width="12.04" height="657.49"/>
</g>
<g id="YellowLine7">
	<rect x="878.27" y="30.5" class="st6" width="12.04" height="657.49"/>
</g>
<g id="Yellowline4">
	<rect x="793.18" y="30.5" class="st6" width="12.04" height="657.49"/>
</g>
<g id="BlueTopL">
	<polygon class="st0" points="603.72,649.46 519.42,649.46 519.42,630.19 603.72,618.15 	"/>
</g>
<g id="BluebottomL">
	<polygon class="st0" points="603.72,724.12 519.42,724.12 519.42,743.39 603.72,755.43 	"/>
</g>
<g id="Yellowshape">
	<rect x="519.42" y="649.46" class="st7" width="65.03" height="74.66"/>
</g>
<g id="BluetopR">
	<polygon class="st0" points="996.28,649.46 1080.58,649.46 1080.58,630.19 996.28,618.15 	"/>
</g>
<g id="BlueBottomR">
	<polygon class="st0" points="996.28,724.12 1080.58,724.12 1080.58,743.39 996.28,755.43 	"/>
</g>
<g id="YellowsquareR">
	
		<rect x="993.88" y="649.46" transform="matrix(-1 -3.367230e-11 3.367230e-11 -1 2074.4556 1373.5798)" class="st7" width="86.7" height="74.66"/>
</g>
<g id="Layer_12">
	<polygon class="st8" points="933.67,687.99 933.67,586.84 1020.37,586.84 1020.37,603.7 962.57,603.7 962.57,687.99 	"/>
</g>
<g id="YellowSquare">
	<rect x="630.21" y="1220.25" class="st6" width="339.58" height="52.98"/>
</g>
<g id="Blacksquare1">
	<rect x="637.43" y="1229.88" class="st9" width="19.27" height="36.13"/>
</g>
<g id="Greensquare1">
	<rect x="661.52" y="1229.88" class="st5" width="19.27" height="36.13"/>
</g>
<g id="Blacksquare2">
	<rect x="688.01" y="1229.88" class="st9" width="19.27" height="36.13"/>
</g>
<g id="Greensquare2">
	<rect x="712.09" y="1229.88" class="st5" width="19.27" height="36.13"/>
</g>
<g id="Blacksquare3">
	<rect x="738.59" y="1229.88" class="st9" width="19.27" height="36.13"/>
</g>
<g id="Greensquare3">
	<rect x="762.67" y="1229.88" class="st5" width="19.27" height="36.13"/>
</g>
<g id="Blacksquare4">
	<rect x="789.16" y="1229.88" class="st9" width="19.27" height="36.13"/>
</g>
<g id="Greensquare4">
	<rect x="815.65" y="1229.88" class="st5" width="19.27" height="36.13"/>
</g>
<g id="Blacksquare5">
	<rect x="842.15" y="1229.88" class="st9" width="19.27" height="36.13"/>
</g>
<g id="Greensquare5">
	<rect x="868.64" y="1229.88" class="st5" width="19.27" height="36.13"/>
</g>
<g id="Blacksquare6">
	<rect x="895.13" y="1229.88" class="st9" width="19.27" height="36.13"/>
</g>
<g id="Greensquare6">
	<rect x="921.62" y="1229.88" class="st5" width="19.27" height="36.13"/>
</g>
<g id="Blacksquare7">
	<rect x="945.71" y="1229.88" class="st9" width="19.27" height="36.13"/>
</g>
<g id="Yellowstroke1">
	<rect x="651.88" y="1268.42" class="st6" width="9.63" height="195.08"/>
</g>
<g id="Yellowstroke2">
	<rect x="690.42" y="1268.42" class="st6" width="9.63" height="195.08"/>
</g>
<g id="Yellowstroke3">
	<rect x="726.54" y="1268.42" class="st6" width="9.63" height="195.08"/>
</g>
<g id="Yellowstroke4">
	<rect x="762.67" y="1268.42" class="st6" width="9.63" height="195.08"/>
</g>
<g id="Yellowstroke5">
	<rect x="798.8" y="1268.42" class="st6" width="9.63" height="195.08"/>
</g>
<g id="Yellowstroke6">
	<rect x="837.33" y="1268.42" class="st6" width="9.63" height="195.08"/>
</g>
<g id="Yellowstroke7">
	<rect x="873.46" y="1268.42" class="st6" width="9.63" height="195.08"/>
</g>
<g id="Yellowstroke8">
	<rect x="909.58" y="1268.42" class="st6" width="9.63" height="195.08"/>
</g>
<g id="Yellowstroke9">
	<rect x="945.71" y="1268.42" class="st6" width="9.63" height="195.08"/>
</g>
</svg>
