<?xml version="1.0" encoding="utf-8"?>
<!-- Generator: Adobe Illustrator 24.1.2, SVG Export Plug-In . SVG Version: 6.00 Build 0)  -->
<svg version="1.1" id="Layer_1" xmlns="http://www.w3.org/2000/svg" xmlns:xlink="http://www.w3.org/1999/xlink" x="0px" y="0px"
	 viewBox="0 0 980 1548" style="enable-background:new 0 0 980 1548;" xml:space="preserve">
<style type="text/css">
	.st0{fill:#0049C6;}
	.st1{fill:#CC0000;}
	.st2{fill:#650725;}
	.st3{opacity:0.75;fill:#6A2500;}
	.st4{fill:#08256B;}
	.st5{fill:#126E15;}
	.st6{fill:#FFD600;}
	.st7{fill:#F3E200;}
	.st8{fill:#277800;}
	.st9{fill:#070908;}
</style>
<g id="Blueshape">
	<path class="st0" d="M683.88,715.89v-58.2c0-4.54,3.68-8.23,8.23-8.23h0.8c4.54,0,8.23-3.68,8.23-8.23V375.74
		c0-109.41-89.52-198.93-198.93-198.93h-26.02c-109.41,0-198.93,89.52-198.93,198.93v263.08c0,4.54,3.68,8.23,8.23,8.23h0
		c4.54,0,8.23,3.68,8.23,8.23v60.61c0,4.54-3.68,8.23-8.23,8.23h0c-4.54,0-8.23,3.68-8.23,8.23v497.9
		c0,109.41,89.52,198.93,198.93,198.93h26.02c109.41,0,198.93-89.52,198.93-198.93v-497.9c0-4.54-3.68-8.23-8.23-8.23h-0.8
		C687.56,724.12,683.88,720.44,683.88,715.89z"/>
</g>
<g id="Redshape">
	<path class="st1" d="M489.2,1413.53L489.2,1413.53c-107.29,0-195.08-87.79-195.08-195.08v-830.9
		c0-107.29,87.79-195.08,195.08-195.08h0c107.29,0,195.08,87.79,195.08,195.08v830.9C684.28,1325.74,596.49,1413.53,489.2,1413.53z"
		/>
</g>
<g id="Darkredsquare">
	<rect x="325.02" y="374.9" class="st2" width="341.99" height="301.05"/>
</g>
<g id="Shadow">
	<path class="st3" d="M616.75,1316.59H363.56v-45.76h257.7v41.25C621.26,1314.57,619.24,1316.59,616.75,1316.59z"/>
</g>
<g id="Darkblueshape">
	<rect x="325.02" y="687.99" class="st4" width="339.58" height="180.63"/>
</g>
<g id="Darkgreenshape">
	<rect x="325.02" y="875.85" class="st5" width="339.58" height="346.81"/>
</g>
<g id="YellowLine1">
	<rect x="397.28" y="30.5" class="st6" width="12.04" height="657.49"/>
</g>
<g id="Yellowline1_1_">
	<rect x="426.18" y="30.5" class="st6" width="12.04" height="657.49"/>
</g>
<g id="Yellowline1_2_">
	<rect x="455.08" y="30.5" class="st6" width="12.04" height="657.49"/>
</g>
<g id="Yellowline5">
	<rect x="510.47" y="30.5" class="st6" width="12.04" height="657.49"/>
</g>
<g id="YellowLine6">
	<rect x="539.37" y="30.5" class="st6" width="12.04" height="657.49"/>
</g>
<g id="YellowLine7">
	<rect x="568.27" y="30.5" class="st6" width="12.04" height="657.49"/>
</g>
<g id="Yellowline4">
	<rect x="483.18" y="30.5" class="st6" width="12.04" height="657.49"/>
</g>
<g id="BlueTopL">
	<polygon class="st0" points="293.72,649.46 209.42,649.46 209.42,630.19 293.72,618.15 	"/>
</g>
<g id="BluebottomL">
	<polygon class="st0" points="293.72,724.12 209.42,724.12 209.42,743.39 293.72,755.43 	"/>
</g>
<g id="Yellowshape">
	<rect x="209.42" y="649.46" class="st7" width="65.03" height="74.66"/>
</g>
<g id="BluetopR">
	<polygon class="st0" points="686.28,649.46 770.58,649.46 770.58,630.19 686.28,618.15 	"/>
</g>
<g id="BlueBottomR">
	<polygon class="st0" points="686.28,724.12 770.58,724.12 770.58,743.39 686.28,755.43 	"/>
</g>
<g id="YellowsquareR">
	
		<rect x="683.88" y="649.46" transform="matrix(-1 -3.367230e-11 3.367230e-11 -1 1454.4554 1373.5798)" class="st7" width="86.7" height="74.66"/>
</g>
<g id="Layer_12">
	<polygon class="st8" points="623.67,687.99 623.67,586.84 710.37,586.84 710.37,603.7 652.57,603.7 652.57,687.99 	"/>
</g>
<g id="YellowSquare">
	<rect x="320.21" y="1220.25" class="st6" width="339.58" height="52.98"/>
</g>
<g id="Blacksquare1">
	<rect x="327.43" y="1229.88" class="st9" width="19.27" height="36.13"/>
</g>
<g id="Greensquare1">
	<rect x="351.52" y="1229.88" class="st5" width="19.27" height="36.13"/>
</g>
<g id="Blacksquare2">
	<rect x="378.01" y="1229.88" class="st9" width="19.27" height="36.13"/>
</g>
<g id="Greensquare2">
	<rect x="402.09" y="1229.88" class="st5" width="19.27" height="36.13"/>
</g>
<g id="Blacksquare3">
	<rect x="428.59" y="1229.88" class="st9" width="19.27" height="36.13"/>
</g>
<g id="Greensquare3">
	<rect x="452.67" y="1229.88" class="st5" width="19.27" height="36.13"/>
</g>
<g id="Blacksquare4">
	<rect x="479.16" y="1229.88" class="st9" width="19.27" height="36.13"/>
</g>
<g id="Greensquare4">
	<rect x="505.65" y="1229.88" class="st5" width="19.27" height="36.13"/>
</g>
<g id="Blacksquare5">
	<rect x="532.15" y="1229.88" class="st9" width="19.27" height="36.13"/>
</g>
<g id="Greensquare5">
	<rect x="558.64" y="1229.88" class="st5" width="19.27" height="36.13"/>
</g>
<g id="Blacksquare6">
	<rect x="585.13" y="1229.88" class="st9" width="19.27" height="36.13"/>
</g>
<g id="Greensquare6">
	<rect x="611.62" y="1229.88" class="st5" width="19.27" height="36.13"/>
</g>
<g id="Blacksquare7">
	<rect x="635.71" y="1229.88" class="st9" width="19.27" height="36.13"/>
</g>
<g id="Yellowstroke1">
	<rect x="341.88" y="1268.42" class="st6" width="9.63" height="195.08"/>
</g>
<g id="Yellowstroke2">
	<rect x="380.42" y="1268.42" class="st6" width="9.63" height="195.08"/>
</g>
<g id="Yellowstroke3">
	<rect x="416.54" y="1268.42" class="st6" width="9.63" height="195.08"/>
</g>
<g id="Yellowstroke4">
	<rect x="452.67" y="1268.42" class="st6" width="9.63" height="195.08"/>
</g>
<g id="Yellowstroke5">
	<rect x="488.8" y="1268.42" class="st6" width="9.63" height="195.08"/>
</g>
<g id="Yellowstroke6">
	<rect x="527.33" y="1268.42" class="st6" width="9.63" height="195.08"/>
</g>
<g id="Yellowstroke7">
	<rect x="563.46" y="1268.42" class="st6" width="9.63" height="195.08"/>
</g>
<g id="Yellowstroke8">
	<rect x="599.58" y="1268.42" class="st6" width="9.63" height="195.08"/>
</g>
<g id="Yellowstroke9">
	<rect x="635.71" y="1268.42" class="st6" width="9.63" height="195.08"/>
</g>
</svg>
